
  <svg width='570px'
       height='493.91347391416554px'
       viewBox='0 0 570 493.91347391416554'
       xmlns='http://www.w3.org/2000/svg'
       xmlns:xlink="http://www.w3.org/1999/xlink">

    <style type='text/css'>
    .keycap .border { stroke: black; stroke-width: 2; }
    .keycap .inner.border { stroke: rgba(0,0,0,.1); }
    </style>
    <defs>
      <linearGradient id="DCS">
        <stop offset="0%" stop-color="black" stop-opacity="0"/>
        <stop offset="40%" stop-color="black" stop-opacity="0.1"/>
        <stop offset="60%" stop-color="black" stop-opacity="0.1"/>
        <stop offset="100%" stop-color="black" stop-opacity="0"/>
      </linearGradient>
      <linearGradient id="SPACE" x1="0%" x2="0%" y1="0%" y2="100%">
        <stop offset="0%" stop-color="black" stop-opacity="0.1"/>
        <stop offset="20%" stop-color="black" stop-opacity="0.0"/>
        <stop offset="40%" stop-color="black" stop-opacity="0.0"/>
        <stop offset="100%" stop-color="black" stop-opacity="0.1"/>
      </linearGradient>
      <radialGradient id="DSA">
        <stop offset="0%" stop-color="black" stop-opacity="0.1"/>
        <stop offset="10%" stop-color="black" stop-opacity="0.1"/>
        <stop offset="100%" stop-color="black" stop-opacity="0"/>
      </radialGradient>
      <radialGradient id="SA" xlink:href="#DSA" />
    </defs>

    <g transform='translate(10,10)'>
      <rect width="550" height="473.91347391416554"
            stroke="#ddd" stroke-width="1" fill="#eeeeee" rx="6"/>
      <g transform='translate(5,5)'>
        
  <g class='  keycap'
  >

  
    <!-- Outer Border -->
    <rect x="82" y="1"
          width="52" height="52"
          rx="5" fill="#a1b5cb" class="outer border"/>
    
    <!-- Outer Fill -->
    <rect x="82" y="1"
          width="52" height="52"
          rx="5" fill="#a1b5cb"/>
    

    
      <!-- Inner Border -->
      <rect x="88" y="4"
            width="40" height="40"
            rx="5" fill="#cbdff6" class="inner border"/>
      
      <!-- Inner Fill -->
      <rect x="88" y="4"
            width="40" height="40"
            rx="5" fill="#cbdff6"/>
      
      

     
   
  </g>

  <g class='  keycap'
  >

  
    <!-- Outer Border -->
    <rect x="136" y="1"
          width="52" height="52"
          rx="5" fill="#a1b5cb" class="outer border"/>
    
    <!-- Outer Fill -->
    <rect x="136" y="1"
          width="52" height="52"
          rx="5" fill="#a1b5cb"/>
    

    
      <!-- Inner Border -->
      <rect x="142" y="4"
            width="40" height="40"
            rx="5" fill="#cbdff6" class="inner border"/>
      
      <!-- Inner Fill -->
      <rect x="142" y="4"
            width="40" height="40"
            rx="5" fill="#cbdff6"/>
      
      

     
   
  </g>

  <g class='  keycap'
  >

  
    <!-- Outer Border -->
    <rect x="190" y="1"
          width="52" height="52"
          rx="5" fill="#a1b5cb" class="outer border"/>
    
    <!-- Outer Fill -->
    <rect x="190" y="1"
          width="52" height="52"
          rx="5" fill="#a1b5cb"/>
    

    
      <!-- Inner Border -->
      <rect x="196" y="4"
            width="40" height="40"
            rx="5" fill="#cbdff6" class="inner border"/>
      
      <!-- Inner Fill -->
      <rect x="196" y="4"
            width="40" height="40"
            rx="5" fill="#cbdff6"/>
      
      

     
   
  </g>

  <g class='  keycap'
  >

  
    <!-- Outer Border -->
    <rect x="244" y="1"
          width="52" height="52"
          rx="5" fill="#a1b5cb" class="outer border"/>
    
    <!-- Outer Fill -->
    <rect x="244" y="1"
          width="52" height="52"
          rx="5" fill="#a1b5cb"/>
    

    
      <!-- Inner Border -->
      <rect x="250" y="4"
            width="40" height="40"
            rx="5" fill="#cbdff6" class="inner border"/>
      
      <!-- Inner Fill -->
      <rect x="250" y="4"
            width="40" height="40"
            rx="5" fill="#cbdff6"/>
      
      

     
   
  </g>

  <g class='  keycap'
  >

  
    <!-- Outer Border -->
    <rect x="325" y="1"
          width="52" height="52"
          rx="5" fill="#cccccc" class="outer border"/>
    
    <!-- Outer Fill -->
    <rect x="325" y="1"
          width="52" height="52"
          rx="5" fill="#cccccc"/>
    

    
      <!-- Inner Border -->
      <rect x="331" y="4"
            width="40" height="40"
            rx="5" fill="#fcfcfc" class="inner border"/>
      
      <!-- Inner Fill -->
      <rect x="331" y="4"
            width="40" height="40"
            rx="5" fill="#fcfcfc"/>
      
      

     
   
  </g>

  <g class='  keycap'
  >

  
    <!-- Outer Border -->
    <rect x="379" y="1"
          width="52" height="52"
          rx="5" fill="#cccccc" class="outer border"/>
    
    <!-- Outer Fill -->
    <rect x="379" y="1"
          width="52" height="52"
          rx="5" fill="#cccccc"/>
    

    
      <!-- Inner Border -->
      <rect x="385" y="4"
            width="40" height="40"
            rx="5" fill="#fcfcfc" class="inner border"/>
      
      <!-- Inner Fill -->
      <rect x="385" y="4"
            width="40" height="40"
            rx="5" fill="#fcfcfc"/>
      
      

     
   
  </g>

  <g class='  keycap'
  >

  
    <!-- Outer Border -->
    <rect x="433" y="1"
          width="52" height="52"
          rx="5" fill="#cccccc" class="outer border"/>
    
    <!-- Outer Fill -->
    <rect x="433" y="1"
          width="52" height="52"
          rx="5" fill="#cccccc"/>
    

    
      <!-- Inner Border -->
      <rect x="439" y="4"
            width="40" height="40"
            rx="5" fill="#fcfcfc" class="inner border"/>
      
      <!-- Inner Fill -->
      <rect x="439" y="4"
            width="40" height="40"
            rx="5" fill="#fcfcfc"/>
      
      

     
   
  </g>

  <g class='  keycap'
  >

  
    <!-- Outer Border -->
    <rect x="487" y="1"
          width="52" height="52"
          rx="5" fill="#cccccc" class="outer border"/>
    
    <!-- Outer Fill -->
    <rect x="487" y="1"
          width="52" height="52"
          rx="5" fill="#cccccc"/>
    

    
      <!-- Inner Border -->
      <rect x="493" y="4"
            width="40" height="40"
            rx="5" fill="#fcfcfc" class="inner border"/>
      
      <!-- Inner Fill -->
      <rect x="493" y="4"
            width="40" height="40"
            rx="5" fill="#fcfcfc"/>
      
      

     
   
  </g>

  <g class='  keycap'
  >

  
    <!-- Outer Border -->
    <rect x="55" y="68.5"
          width="52" height="52"
          rx="5" fill="#a8cba1" class="outer border"/>
    
    <!-- Outer Fill -->
    <rect x="55" y="68.5"
          width="52" height="52"
          rx="5" fill="#a8cba1"/>
    

    
      <!-- Inner Border -->
      <rect x="61" y="71.5"
            width="40" height="40"
            rx="5" fill="#d5f9cd" class="inner border"/>
      
      <!-- Inner Fill -->
      <rect x="61" y="71.5"
            width="40" height="40"
            rx="5" fill="#d5f9cd"/>
      
      

     
   
  </g>

  <g class='  keycap'
  >

  
    <!-- Outer Border -->
    <rect x="109" y="68.5"
          width="52" height="52"
          rx="5" fill="#a8cba1" class="outer border"/>
    
    <!-- Outer Fill -->
    <rect x="109" y="68.5"
          width="52" height="52"
          rx="5" fill="#a8cba1"/>
    

    
      <!-- Inner Border -->
      <rect x="115" y="71.5"
            width="40" height="40"
            rx="5" fill="#d5f9cd" class="inner border"/>
      
      <!-- Inner Fill -->
      <rect x="115" y="71.5"
            width="40" height="40"
            rx="5" fill="#d5f9cd"/>
      
      

     
   
  </g>

  <g class='  keycap'
  >

  
    <!-- Outer Border -->
    <rect x="163" y="68.5"
          width="52" height="52"
          rx="5" fill="#a8cba1" class="outer border"/>
    
    <!-- Outer Fill -->
    <rect x="163" y="68.5"
          width="52" height="52"
          rx="5" fill="#a8cba1"/>
    

    
      <!-- Inner Border -->
      <rect x="169" y="71.5"
            width="40" height="40"
            rx="5" fill="#d5f9cd" class="inner border"/>
      
      <!-- Inner Fill -->
      <rect x="169" y="71.5"
            width="40" height="40"
            rx="5" fill="#d5f9cd"/>
      
      

     
   
  </g>

  <g class='  keycap'
  >

  
    <!-- Outer Border -->
    <rect x="217" y="68.5"
          width="52" height="52"
          rx="5" fill="#a8cba1" class="outer border"/>
    
    <!-- Outer Fill -->
    <rect x="217" y="68.5"
          width="52" height="52"
          rx="5" fill="#a8cba1"/>
    

    
      <!-- Inner Border -->
      <rect x="223" y="71.5"
            width="40" height="40"
            rx="5" fill="#d5f9cd" class="inner border"/>
      
      <!-- Inner Fill -->
      <rect x="223" y="71.5"
            width="40" height="40"
            rx="5" fill="#d5f9cd"/>
      
      

     
   
  </g>

  <g class='  keycap'
  >

  
    <!-- Outer Border -->
    <rect x="271" y="68.5"
          width="52" height="52"
          rx="5" fill="#a8cba1" class="outer border"/>
    
    <!-- Outer Fill -->
    <rect x="271" y="68.5"
          width="52" height="52"
          rx="5" fill="#a8cba1"/>
    

    
      <!-- Inner Border -->
      <rect x="277" y="71.5"
            width="40" height="40"
            rx="5" fill="#d5f9cd" class="inner border"/>
      
      <!-- Inner Fill -->
      <rect x="277" y="71.5"
            width="40" height="40"
            rx="5" fill="#d5f9cd"/>
      
      

     
   
  </g>

  <g class='  keycap'
  >

  
    <!-- Outer Border -->
    <rect x="325" y="68.5"
          width="52" height="52"
          rx="5" fill="#a8cba1" class="outer border"/>
    
    <!-- Outer Fill -->
    <rect x="325" y="68.5"
          width="52" height="52"
          rx="5" fill="#a8cba1"/>
    

    
      <!-- Inner Border -->
      <rect x="331" y="71.5"
            width="40" height="40"
            rx="5" fill="#d5f9cd" class="inner border"/>
      
      <!-- Inner Fill -->
      <rect x="331" y="71.5"
            width="40" height="40"
            rx="5" fill="#d5f9cd"/>
      
      

     
   
  </g>

  <g class='  keycap'
  >

  
    <!-- Outer Border -->
    <rect x="379" y="68.5"
          width="52" height="52"
          rx="5" fill="#a8cba1" class="outer border"/>
    
    <!-- Outer Fill -->
    <rect x="379" y="68.5"
          width="52" height="52"
          rx="5" fill="#a8cba1"/>
    

    
      <!-- Inner Border -->
      <rect x="385" y="71.5"
            width="40" height="40"
            rx="5" fill="#d5f9cd" class="inner border"/>
      
      <!-- Inner Fill -->
      <rect x="385" y="71.5"
            width="40" height="40"
            rx="5" fill="#d5f9cd"/>
      
      

     
   
  </g>

  <g class='  keycap'
  >

  
    <!-- Outer Border -->
    <rect x="433" y="68.5"
          width="106" height="52"
          rx="5" fill="#a1b5cb" class="outer border"/>
    
    <!-- Outer Fill -->
    <rect x="433" y="68.5"
          width="106" height="52"
          rx="5" fill="#a1b5cb"/>
    

    
      <!-- Inner Border -->
      <rect x="439" y="71.5"
            width="94" height="40"
            rx="5" fill="#cbdff6" class="inner border"/>
      
      <!-- Inner Fill -->
      <rect x="439" y="71.5"
            width="94" height="40"
            rx="5" fill="#cbdff6"/>
      
      

     
   
  </g>

  <g class='  keycap'
  >

  
    <!-- Outer Border -->
    <rect x="82" y="122.5"
          width="52" height="52"
          rx="5" fill="#cccccc" class="outer border"/>
    
    <!-- Outer Fill -->
    <rect x="82" y="122.5"
          width="52" height="52"
          rx="5" fill="#cccccc"/>
    

    
      <!-- Inner Border -->
      <rect x="88" y="125.5"
            width="40" height="40"
            rx="5" fill="#fcfcfc" class="inner border"/>
      
      <!-- Inner Fill -->
      <rect x="88" y="125.5"
            width="40" height="40"
            rx="5" fill="#fcfcfc"/>
      
      

     
   
  </g>

  <g class='  keycap'
  >

  
    <!-- Outer Border -->
    <rect x="136" y="122.5"
          width="52" height="52"
          rx="5" fill="#cccccc" class="outer border"/>
    
    <!-- Outer Fill -->
    <rect x="136" y="122.5"
          width="52" height="52"
          rx="5" fill="#cccccc"/>
    

    
      <!-- Inner Border -->
      <rect x="142" y="125.5"
            width="40" height="40"
            rx="5" fill="#fcfcfc" class="inner border"/>
      
      <!-- Inner Fill -->
      <rect x="142" y="125.5"
            width="40" height="40"
            rx="5" fill="#fcfcfc"/>
      
      

     
   
  </g>

  <g class='  keycap'
  >

  
    <!-- Outer Border -->
    <rect x="190" y="122.5"
          width="52" height="52"
          rx="5" fill="#cccccc" class="outer border"/>
    
    <!-- Outer Fill -->
    <rect x="190" y="122.5"
          width="52" height="52"
          rx="5" fill="#cccccc"/>
    

    
      <!-- Inner Border -->
      <rect x="196" y="125.5"
            width="40" height="40"
            rx="5" fill="#fcfcfc" class="inner border"/>
      
      <!-- Inner Fill -->
      <rect x="196" y="125.5"
            width="40" height="40"
            rx="5" fill="#fcfcfc"/>
      
      

     
   
  </g>

  <g class='  keycap'
  >

  
    <!-- Outer Border -->
    <rect x="244" y="122.5"
          width="52" height="52"
          rx="5" fill="#cccccc" class="outer border"/>
    
    <!-- Outer Fill -->
    <rect x="244" y="122.5"
          width="52" height="52"
          rx="5" fill="#cccccc"/>
    

    
      <!-- Inner Border -->
      <rect x="250" y="125.5"
            width="40" height="40"
            rx="5" fill="#fcfcfc" class="inner border"/>
      
      <!-- Inner Fill -->
      <rect x="250" y="125.5"
            width="40" height="40"
            rx="5" fill="#fcfcfc"/>
      
      

     
   
  </g>

  <g class='  keycap'
  >

  
    <!-- Outer Border -->
    <rect x="298" y="122.5"
          width="52" height="52"
          rx="5" fill="#cccccc" class="outer border"/>
    
    <!-- Outer Fill -->
    <rect x="298" y="122.5"
          width="52" height="52"
          rx="5" fill="#cccccc"/>
    

    
      <!-- Inner Border -->
      <rect x="304" y="125.5"
            width="40" height="40"
            rx="5" fill="#fcfcfc" class="inner border"/>
      
      <!-- Inner Fill -->
      <rect x="304" y="125.5"
            width="40" height="40"
            rx="5" fill="#fcfcfc"/>
      
      

     
   
  </g>

  <g class='  keycap'
  >

  
    <!-- Outer Border -->
    <rect x="352" y="122.5"
          width="52" height="52"
          rx="5" fill="#cccccc" class="outer border"/>
    
    <!-- Outer Fill -->
    <rect x="352" y="122.5"
          width="52" height="52"
          rx="5" fill="#cccccc"/>
    

    
      <!-- Inner Border -->
      <rect x="358" y="125.5"
            width="40" height="40"
            rx="5" fill="#fcfcfc" class="inner border"/>
      
      <!-- Inner Fill -->
      <rect x="358" y="125.5"
            width="40" height="40"
            rx="5" fill="#fcfcfc"/>
      
      

     
   
  </g>

  <g class='  keycap'
  >

  
    <!-- Outer Border -->
    <rect x="406" y="122.5"
          width="52" height="52"
          rx="5" fill="#cccccc" class="outer border"/>
    
    <!-- Outer Fill -->
    <rect x="406" y="122.5"
          width="52" height="52"
          rx="5" fill="#cccccc"/>
    

    
      <!-- Inner Border -->
      <rect x="412" y="125.5"
            width="40" height="40"
            rx="5" fill="#fcfcfc" class="inner border"/>
      
      <!-- Inner Fill -->
      <rect x="412" y="125.5"
            width="40" height="40"
            rx="5" fill="#fcfcfc"/>
      
      

     
   
  </g>

  <g class='  keycap'
  >

  
    <!-- Outer Border -->
    <rect x="460" y="122.5"
          width="79" height="52"
          rx="5" fill="#a1b5cb" class="outer border"/>
    
    <!-- Outer Fill -->
    <rect x="460" y="122.5"
          width="79" height="52"
          rx="5" fill="#a1b5cb"/>
    

    
      <!-- Inner Border -->
      <rect x="466" y="125.5"
            width="67" height="40"
            rx="5" fill="#cbdff6" class="inner border"/>
      
      <!-- Inner Fill -->
      <rect x="466" y="125.5"
            width="67" height="40"
            rx="5" fill="#cbdff6"/>
      
      

     
   
  </g>

  <g class='  keycap'
  >

  
    <!-- Outer Border -->
    <rect x="95.5" y="176.5"
          width="52" height="52"
          rx="5" fill="#cccccc" class="outer border"/>
    
    <!-- Outer Fill -->
    <rect x="95.5" y="176.5"
          width="52" height="52"
          rx="5" fill="#cccccc"/>
    

    
      <!-- Inner Border -->
      <rect x="101.5" y="179.5"
            width="40" height="40"
            rx="5" fill="#fcfcfc" class="inner border"/>
      
      <!-- Inner Fill -->
      <rect x="101.5" y="179.5"
            width="40" height="40"
            rx="5" fill="#fcfcfc"/>
      
      

     
   
  </g>

  <g class='  keycap'
  >

  
    <!-- Outer Border -->
    <rect x="149.5" y="176.5"
          width="52" height="52"
          rx="5" fill="#cccccc" class="outer border"/>
    
    <!-- Outer Fill -->
    <rect x="149.5" y="176.5"
          width="52" height="52"
          rx="5" fill="#cccccc"/>
    

    
      <!-- Inner Border -->
      <rect x="155.5" y="179.5"
            width="40" height="40"
            rx="5" fill="#fcfcfc" class="inner border"/>
      
      <!-- Inner Fill -->
      <rect x="155.5" y="179.5"
            width="40" height="40"
            rx="5" fill="#fcfcfc"/>
      
      

     
   
  </g>

  <g class='  keycap'
  >

  
    <!-- Outer Border -->
    <rect x="203.5" y="176.5"
          width="52" height="52"
          rx="5" fill="#cccccc" class="outer border"/>
    
    <!-- Outer Fill -->
    <rect x="203.5" y="176.5"
          width="52" height="52"
          rx="5" fill="#cccccc"/>
    

    
      <!-- Inner Border -->
      <rect x="209.5" y="179.5"
            width="40" height="40"
            rx="5" fill="#fcfcfc" class="inner border"/>
      
      <!-- Inner Fill -->
      <rect x="209.5" y="179.5"
            width="40" height="40"
            rx="5" fill="#fcfcfc"/>
      
      

     
   
  </g>

  <g class='  keycap'
  >

  
    <!-- Outer Border -->
    <rect x="257.5" y="176.5"
          width="52" height="52"
          rx="5" fill="#cccccc" class="outer border"/>
    
    <!-- Outer Fill -->
    <rect x="257.5" y="176.5"
          width="52" height="52"
          rx="5" fill="#cccccc"/>
    

    
      <!-- Inner Border -->
      <rect x="263.5" y="179.5"
            width="40" height="40"
            rx="5" fill="#fcfcfc" class="inner border"/>
      
      <!-- Inner Fill -->
      <rect x="263.5" y="179.5"
            width="40" height="40"
            rx="5" fill="#fcfcfc"/>
      
      

     
   
  </g>

  <g class='  keycap'
  >

  
    <!-- Outer Border -->
    <rect x="311.5" y="176.5"
          width="52" height="52"
          rx="5" fill="#cccccc" class="outer border"/>
    
    <!-- Outer Fill -->
    <rect x="311.5" y="176.5"
          width="52" height="52"
          rx="5" fill="#cccccc"/>
    

    
      <!-- Inner Border -->
      <rect x="317.5" y="179.5"
            width="40" height="40"
            rx="5" fill="#fcfcfc" class="inner border"/>
      
      <!-- Inner Fill -->
      <rect x="317.5" y="179.5"
            width="40" height="40"
            rx="5" fill="#fcfcfc"/>
      
      

     
   
  </g>

  <g class='  keycap'
  >

  
    <!-- Outer Border -->
    <rect x="365.5" y="176.5"
          width="52" height="52"
          rx="5" fill="#cccccc" class="outer border"/>
    
    <!-- Outer Fill -->
    <rect x="365.5" y="176.5"
          width="52" height="52"
          rx="5" fill="#cccccc"/>
    

    
      <!-- Inner Border -->
      <rect x="371.5" y="179.5"
            width="40" height="40"
            rx="5" fill="#fcfcfc" class="inner border"/>
      
      <!-- Inner Fill -->
      <rect x="371.5" y="179.5"
            width="40" height="40"
            rx="5" fill="#fcfcfc"/>
      
      

     
   
  </g>

  <g class='  keycap'
  >

  
    <!-- Outer Border -->
    <rect x="419.5" y="176.5"
          width="119.5" height="52"
          rx="5" fill="#a8cba1" class="outer border"/>
    
    <!-- Outer Fill -->
    <rect x="419.5" y="176.5"
          width="119.5" height="52"
          rx="5" fill="#a8cba1"/>
    

    
      <!-- Inner Border -->
      <rect x="425.5" y="179.5"
            width="107.5" height="40"
            rx="5" fill="#d5f9cd" class="inner border"/>
      
      <!-- Inner Fill -->
      <rect x="425.5" y="179.5"
            width="107.5" height="40"
            rx="5" fill="#d5f9cd"/>
      
      

     
   
  </g>

  <g class='  keycap'
  >

  
    <!-- Outer Border -->
    <rect x="68.5" y="230.5"
          width="52" height="52"
          rx="5" fill="#cccccc" class="outer border"/>
    
    <!-- Outer Fill -->
    <rect x="68.5" y="230.5"
          width="52" height="52"
          rx="5" fill="#cccccc"/>
    

    
      <!-- Inner Border -->
      <rect x="74.5" y="233.5"
            width="40" height="40"
            rx="5" fill="#fcfcfc" class="inner border"/>
      
      <!-- Inner Fill -->
      <rect x="74.5" y="233.5"
            width="40" height="40"
            rx="5" fill="#fcfcfc"/>
      
      

     
   
  </g>

  <g class='  keycap'
  >

  
    <!-- Outer Border -->
    <rect x="122.5" y="230.5"
          width="52" height="52"
          rx="5" fill="#cccccc" class="outer border"/>
    
    <!-- Outer Fill -->
    <rect x="122.5" y="230.5"
          width="52" height="52"
          rx="5" fill="#cccccc"/>
    

    
      <!-- Inner Border -->
      <rect x="128.5" y="233.5"
            width="40" height="40"
            rx="5" fill="#fcfcfc" class="inner border"/>
      
      <!-- Inner Fill -->
      <rect x="128.5" y="233.5"
            width="40" height="40"
            rx="5" fill="#fcfcfc"/>
      
      

     
   
  </g>

  <g class='  keycap'
  >

  
    <!-- Outer Border -->
    <rect x="176.5" y="230.5"
          width="52" height="52"
          rx="5" fill="#cccccc" class="outer border"/>
    
    <!-- Outer Fill -->
    <rect x="176.5" y="230.5"
          width="52" height="52"
          rx="5" fill="#cccccc"/>
    

    
      <!-- Inner Border -->
      <rect x="182.5" y="233.5"
            width="40" height="40"
            rx="5" fill="#fcfcfc" class="inner border"/>
      
      <!-- Inner Fill -->
      <rect x="182.5" y="233.5"
            width="40" height="40"
            rx="5" fill="#fcfcfc"/>
      
      

     
   
  </g>

  <g class='  keycap'
  >

  
    <!-- Outer Border -->
    <rect x="230.5" y="230.5"
          width="52" height="52"
          rx="5" fill="#cccccc" class="outer border"/>
    
    <!-- Outer Fill -->
    <rect x="230.5" y="230.5"
          width="52" height="52"
          rx="5" fill="#cccccc"/>
    

    
      <!-- Inner Border -->
      <rect x="236.5" y="233.5"
            width="40" height="40"
            rx="5" fill="#fcfcfc" class="inner border"/>
      
      <!-- Inner Fill -->
      <rect x="236.5" y="233.5"
            width="40" height="40"
            rx="5" fill="#fcfcfc"/>
      
      

     
   
  </g>

  <g class='  keycap'
  >

  
    <!-- Outer Border -->
    <rect x="284.5" y="230.5"
          width="52" height="52"
          rx="5" fill="#cccccc" class="outer border"/>
    
    <!-- Outer Fill -->
    <rect x="284.5" y="230.5"
          width="52" height="52"
          rx="5" fill="#cccccc"/>
    

    
      <!-- Inner Border -->
      <rect x="290.5" y="233.5"
            width="40" height="40"
            rx="5" fill="#fcfcfc" class="inner border"/>
      
      <!-- Inner Fill -->
      <rect x="290.5" y="233.5"
            width="40" height="40"
            rx="5" fill="#fcfcfc"/>
      
      

     
   
  </g>

  <g class='  keycap'
  >

  
    <!-- Outer Border -->
    <rect x="338.5" y="230.5"
          width="52" height="52"
          rx="5" fill="#cccccc" class="outer border"/>
    
    <!-- Outer Fill -->
    <rect x="338.5" y="230.5"
          width="52" height="52"
          rx="5" fill="#cccccc"/>
    

    
      <!-- Inner Border -->
      <rect x="344.5" y="233.5"
            width="40" height="40"
            rx="5" fill="#fcfcfc" class="inner border"/>
      
      <!-- Inner Fill -->
      <rect x="344.5" y="233.5"
            width="40" height="40"
            rx="5" fill="#fcfcfc"/>
      
      

     
   
  </g>

  <g class='  keycap'
  >

  
    <!-- Outer Border -->
    <rect x="392.5" y="230.5"
          width="146.5" height="52"
          rx="5" fill="#a1b5cb" class="outer border"/>
    
    <!-- Outer Fill -->
    <rect x="392.5" y="230.5"
          width="146.5" height="52"
          rx="5" fill="#a1b5cb"/>
    

    
      <!-- Inner Border -->
      <rect x="398.5" y="233.5"
            width="134.5" height="40"
            rx="5" fill="#cbdff6" class="inner border"/>
      
      <!-- Inner Fill -->
      <rect x="398.5" y="233.5"
            width="134.5" height="40"
            rx="5" fill="#cbdff6"/>
      
      

     
   
  </g>

  <g class='  keycap'
  >

  
    <!-- Outer Border -->
    <rect x="136" y="284.5"
          width="79" height="52"
          rx="5" fill="#cccccc" class="outer border"/>
    
    <!-- Outer Fill -->
    <rect x="136" y="284.5"
          width="79" height="52"
          rx="5" fill="#cccccc"/>
    

    
      <!-- Inner Border -->
      <rect x="142" y="287.5"
            width="67" height="40"
            rx="5" fill="#fcfcfc" class="inner border"/>
      
      <!-- Inner Fill -->
      <rect x="142" y="287.5"
            width="67" height="40"
            rx="5" fill="#fcfcfc"/>
      
      

     
   
  </g>

  <g class='  keycap'
  >

  
    <!-- Outer Border -->
    <rect x="217" y="284.5"
          width="79" height="52"
          rx="5" fill="#cccccc" class="outer border"/>
    
    <!-- Outer Fill -->
    <rect x="217" y="284.5"
          width="79" height="52"
          rx="5" fill="#cccccc"/>
    

    
      <!-- Inner Border -->
      <rect x="223" y="287.5"
            width="67" height="40"
            rx="5" fill="#fcfcfc" class="inner border"/>
      
      <!-- Inner Fill -->
      <rect x="223" y="287.5"
            width="67" height="40"
            rx="5" fill="#fcfcfc"/>
      
      

     
   
  </g>

  <g class='  keycap'
  >

  
    <!-- Outer Border -->
    <rect x="298" y="284.5"
          width="79" height="52"
          rx="5" fill="#a1b5cb" class="outer border"/>
    
    <!-- Outer Fill -->
    <rect x="298" y="284.5"
          width="79" height="52"
          rx="5" fill="#a1b5cb"/>
    

    
      <!-- Inner Border -->
      <rect x="304" y="287.5"
            width="67" height="40"
            rx="5" fill="#cbdff6" class="inner border"/>
      
      <!-- Inner Fill -->
      <rect x="304" y="287.5"
            width="67" height="40"
            rx="5" fill="#cbdff6"/>
      
      

     
   
  </g>

  <g class='  keycap'
  >

  
    <!-- Outer Border -->
    <rect x="379" y="284.5"
          width="79" height="52"
          rx="5" fill="#a1b5cb" class="outer border"/>
    
    <!-- Outer Fill -->
    <rect x="379" y="284.5"
          width="79" height="52"
          rx="5" fill="#a1b5cb"/>
    

    
      <!-- Inner Border -->
      <rect x="385" y="287.5"
            width="67" height="40"
            rx="5" fill="#cbdff6" class="inner border"/>
      
      <!-- Inner Fill -->
      <rect x="385" y="287.5"
            width="67" height="40"
            rx="5" fill="#cbdff6"/>
      
      

     
   
  </g>

  <g class='  keycap'
  >

  
    <!-- Outer Border -->
    <rect x="460" y="284.5"
          width="79" height="52"
          rx="5" fill="#a1b5cb" class="outer border"/>
    
    <!-- Outer Fill -->
    <rect x="460" y="284.5"
          width="79" height="52"
          rx="5" fill="#a1b5cb"/>
    

    
      <!-- Inner Border -->
      <rect x="466" y="287.5"
            width="67" height="40"
            rx="5" fill="#cbdff6" class="inner border"/>
      
      <!-- Inner Fill -->
      <rect x="466" y="287.5"
            width="67" height="40"
            rx="5" fill="#cbdff6"/>
      
      

     
   
  </g>

  <g class='  keycap'
  >

  
    <!-- Outer Border -->
    <rect x="190" y="338.5"
          width="65.5" height="52"
          rx="5" fill="#a1b5cb" class="outer border"/>
    
    <!-- Outer Fill -->
    <rect x="190" y="338.5"
          width="65.5" height="52"
          rx="5" fill="#a1b5cb"/>
    

    
      <!-- Inner Border -->
      <rect x="196" y="341.5"
            width="53.5" height="40"
            rx="5" fill="#cbdff6" class="inner border"/>
      
      <!-- Inner Fill -->
      <rect x="196" y="341.5"
            width="53.5" height="40"
            rx="5" fill="#cbdff6"/>
      
      

     
   
  </g>

  <g class='  keycap'
  >

  
    <!-- Outer Border -->
    <rect x="257.5" y="338.5"
          width="65.5" height="52"
          rx="5" fill="#a1b5cb" class="outer border"/>
    
    <!-- Outer Fill -->
    <rect x="257.5" y="338.5"
          width="65.5" height="52"
          rx="5" fill="#a1b5cb"/>
    

    
      <!-- Inner Border -->
      <rect x="263.5" y="341.5"
            width="53.5" height="40"
            rx="5" fill="#cbdff6" class="inner border"/>
      
      <!-- Inner Fill -->
      <rect x="263.5" y="341.5"
            width="53.5" height="40"
            rx="5" fill="#cbdff6"/>
      
      

     
   
  </g>

  <g class='  keycap'
  >

  
    <!-- Outer Border -->
    <rect x="433" y="338.5"
          width="52" height="52"
          rx="5" fill="#a1b5cb" class="outer border"/>
    
    <!-- Outer Fill -->
    <rect x="433" y="338.5"
          width="52" height="52"
          rx="5" fill="#a1b5cb"/>
    

    
      <!-- Inner Border -->
      <rect x="439" y="341.5"
            width="40" height="40"
            rx="5" fill="#cbdff6" class="inner border"/>
      
      <!-- Inner Fill -->
      <rect x="439" y="341.5"
            width="40" height="40"
            rx="5" fill="#cbdff6"/>
      
      

     
   
  </g>

  <g class='  keycap'
  >

  
    <!-- Outer Border -->
    <rect x="379" y="392.5"
          width="52" height="52"
          rx="5" fill="#a1b5cb" class="outer border"/>
    
    <!-- Outer Fill -->
    <rect x="379" y="392.5"
          width="52" height="52"
          rx="5" fill="#a1b5cb"/>
    

    
      <!-- Inner Border -->
      <rect x="385" y="395.5"
            width="40" height="40"
            rx="5" fill="#cbdff6" class="inner border"/>
      
      <!-- Inner Fill -->
      <rect x="385" y="395.5"
            width="40" height="40"
            rx="5" fill="#cbdff6"/>
      
      

     
   
  </g>

  <g class='  keycap'
  >

  
    <!-- Outer Border -->
    <rect x="433" y="392.5"
          width="52" height="52"
          rx="5" fill="#a1b5cb" class="outer border"/>
    
    <!-- Outer Fill -->
    <rect x="433" y="392.5"
          width="52" height="52"
          rx="5" fill="#a1b5cb"/>
    

    
      <!-- Inner Border -->
      <rect x="439" y="395.5"
            width="40" height="40"
            rx="5" fill="#cbdff6" class="inner border"/>
      
      <!-- Inner Fill -->
      <rect x="439" y="395.5"
            width="40" height="40"
            rx="5" fill="#cbdff6"/>
      
      

     
   
  </g>

  <g class='  keycap'
  >

  
    <!-- Outer Border -->
    <rect x="487" y="392.5"
          width="52" height="52"
          rx="5" fill="#a1b5cb" class="outer border"/>
    
    <!-- Outer Fill -->
    <rect x="487" y="392.5"
          width="52" height="52"
          rx="5" fill="#a1b5cb"/>
    

    
      <!-- Inner Border -->
      <rect x="493" y="395.5"
            width="40" height="40"
            rx="5" fill="#cbdff6" class="inner border"/>
      
      <!-- Inner Fill -->
      <rect x="493" y="395.5"
            width="40" height="40"
            rx="5" fill="#cbdff6"/>
      
      

     
   
  </g>

  <g class='  keycap'
  
     transform="rotate(45 324 378)"
  >

  
    <!-- Outer Border -->
    <rect x="122.5" y="487"
          width="106" height="52"
          rx="5" fill="#cccccc" class="outer border"/>
    
    <!-- Outer Fill -->
    <rect x="122.5" y="487"
          width="106" height="52"
          rx="5" fill="#cccccc"/>
    

    
      <!-- Inner Border -->
      <rect x="128.5" y="490"
            width="94" height="40"
            rx="5" fill="#fcfcfc" class="inner border"/>
      
      <!-- Inner Fill -->
      <rect x="128.5" y="490"
            width="94" height="40"
            rx="5" fill="#fcfcfc"/>
      
      

     
   
  </g>

  <g class='  keycap'
  
     transform="rotate(45 324 378)"
  >

  
    <!-- Outer Border -->
    <rect x="122.5" y="541"
          width="106" height="52"
          rx="5" fill="#a1b5cb" class="outer border"/>
    
    <!-- Outer Fill -->
    <rect x="122.5" y="541"
          width="106" height="52"
          rx="5" fill="#a1b5cb"/>
    

    
      <!-- Inner Border -->
      <rect x="128.5" y="544"
            width="94" height="40"
            rx="5" fill="#cbdff6" class="inner border"/>
      
      <!-- Inner Fill -->
      <rect x="128.5" y="544"
            width="94" height="40"
            rx="5" fill="#cbdff6"/>
      
      

     
   
  </g>

      </g>
    </g>
  </svg>
